<?xml version="1.0" encoding="UTF-8" standalone="no"?>
<svg
   xmlns:sketch="http://www.bohemiancoding.com/sketch/ns"
   xmlns:dc="http://purl.org/dc/elements/1.1/"
   xmlns:cc="http://creativecommons.org/ns#"
   xmlns:rdf="http://www.w3.org/1999/02/22-rdf-syntax-ns#"
   xmlns:svg="http://www.w3.org/2000/svg"
   xmlns="http://www.w3.org/2000/svg"
   xmlns:sodipodi="http://sodipodi.sourceforge.net/DTD/sodipodi-0.dtd"
   xmlns:inkscape="http://www.inkscape.org/namespaces/inkscape"
   width="37"
   height="62"
   viewBox="0 0 37 62"
   version="1.1"
   id="svg2"
   inkscape:version="0.91 r13725"
   sodipodi:docname="ship.svg">
  <metadata
     id="metadata14">
    <rdf:RDF>
      <cc:Work
         rdf:about="">
        <dc:format>image/svg+xml</dc:format>
        <dc:type
           rdf:resource="http://purl.org/dc/dcmitype/StillImage" />
        <dc:title>ship</dc:title>
      </cc:Work>
    </rdf:RDF>
  </metadata>
  <sodipodi:namedview
     pagecolor="#ffffff"
     bordercolor="#666666"
     borderopacity="1"
     objecttolerance="10"
     gridtolerance="10"
     guidetolerance="10"
     inkscape:pageopacity="0"
     inkscape:pageshadow="2"
     inkscape:window-width="958"
     inkscape:window-height="1048"
     id="namedview12"
     showgrid="false"
     fit-margin-top="0"
     fit-margin-left="0"
     fit-margin-right="0"
     fit-margin-bottom="0"
     inkscape:zoom="4"
     inkscape:cx="19.5"
     inkscape:cy="31"
     inkscape:window-x="0"
     inkscape:window-y="30"
     inkscape:window-maximized="0"
     inkscape:current-layer="svg2" />
  <!-- Generator: Sketch 3.4.2 (15855) - http://www.bohemiancoding.com/sketch -->
  <title
     id="title4">ship</title>
  <desc
     id="desc6">Created with Sketch.</desc>
  <defs
     id="defs8" />
  <g
     id="Page-1"
     sketch:type="MSPage"
     style="fill:none;fill-rule:evenodd;stroke:none;stroke-width:1"
     transform="translate(1.5,1.5)">
    <path
       d="m 10,41.082808 2.170266,-3.217552 C 12.059094,37.429945 12,36.973979 12,36.504413 l 0,-4.30117 C 5.6121368,30.103658 1,24.09044 1,17 1,8.163444 8.163444,1 17,1 c 8.836556,0 16,7.163444 16,16 0,6.714755 -4.136339,12.463416 -10,14.836966 l 0,4.667447 c 0,0.469692 -0.05912,0.925623 -0.170294,1.360802 L 25,41.082808 25,37.990053 C 25,35.786408 26.795356,34 29,34 c 2.209139,0 4,1.784293 4,3.990053 l 0,16.019894 C 33,56.213592 31.204644,58 29,58 26.790861,58 25,56.215707 25,54.009947 l 0,-2.339424 C 24.833777,51.51697 24.682583,51.341968 24.550606,51.146303 L 18.338404,41.936336 C 18.064965,41.978256 17.784969,42 17.5,42 17.214921,42 16.934908,41.97829 16.66152,41.93645 l -6.212126,9.209855 C 10.317417,51.341968 10.166223,51.51697 10,51.670523 l 0,2.339424 C 10,56.213592 8.2046439,58 6,58 3.790861,58 2,56.215707 2,54.009947 L 2,37.990053 C 2,35.786408 3.7953562,34 6,34 c 2.209139,0 4,1.784293 4,3.990053 l 0,3.092755 z"
       id="Rectangle-2"
       sketch:type="MSShapeGroup"
       inkscape:connector-curvature="0"
       style="stroke:#7fdbff;stroke-width:5" />
  </g>
</svg>
