<?xml version="1.0" encoding="UTF-8" standalone="no"?>
<svg width="34px" height="59px" viewBox="0 0 34 59" version="1.1" xmlns="http://www.w3.org/2000/svg" xmlns:xlink="http://www.w3.org/1999/xlink" xmlns:sketch="http://www.bohemiancoding.com/sketch/ns">
    <!-- Generator: Sketch 3.4.2 (15855) - http://www.bohemiancoding.com/sketch -->
    <title>ship</title>
    <desc>Created with Sketch.</desc>
    <defs></defs>
    <g id="Page-1" stroke="none" stroke-width="1" fill="none" fill-rule="evenodd" sketch:type="MSPage">
        <path d="M10,41.082808 L12.170266,37.8652563 C12.0590941,37.4299452 12,36.973979 12,36.5044128 L12,32.2032429 C5.61213681,30.1036578 1,24.0904401 1,17 C1,8.163444 8.163444,1 17,1 C25.836556,1 33,8.163444 33,17 C33,23.7147551 28.8636607,29.4634164 23,31.8369659 L23,36.5044128 C23,36.9741055 22.940881,37.4300359 22.8297063,37.8652152 L25,41.082808 L25,37.990053 C25,35.7864076 26.7953562,34 29,34 C31.209139,34 33,35.7842933 33,37.990053 L33,54.009947 C33,56.2135924 31.2046438,58 29,58 C26.790861,58 25,56.2157067 25,54.009947 L25,51.6705232 C24.833777,51.51697 24.6825831,51.341968 24.5506056,51.1463032 L18.3384043,41.9363361 C18.064965,41.9782565 17.7849692,42 17.5,42 C17.2149209,42 16.9349076,41.9782931 16.6615201,41.9364481 L10.4493944,51.1463032 C10.3174169,51.341968 10.166223,51.51697 10,51.6705232 L10,54.009947 C10,56.2135924 8.20464385,58 6,58 C3.790861,58 2,56.2157067 2,54.009947 L2,37.990053 C2,35.7864076 3.79535615,34 6,34 C8.209139,34 10,35.7842933 10,37.990053 L10,41.082808 Z" id="Rectangle-2" stroke="#7FDBFF" stroke-width="5" sketch:type="MSShapeGroup"></path>
    </g>
</svg>