<svg xmlns="http://www.w3.org/2000/svg" width="37" height="62" viewBox="0 0 37 62"><title>ship</title><path d="M11.5 42.583l2.17-3.218a5.493 5.493 0 0 1-.17-1.36v-4.302c-6.388-2.1-11-8.113-11-15.203 0-8.837 7.163-16 16-16s16 7.163 16 16c0 6.715-4.136 12.463-10 14.837v4.667c0 .47-.06.926-.17 1.361l2.17 3.218V39.49a3.998 3.998 0 0 1 4-3.99c2.21 0 4 1.784 4 3.99v16.02a3.998 3.998 0 0 1-4 3.99c-2.21 0-4-1.784-4-3.99v-2.34a2.985 2.985 0 0 1-.45-.524l-6.212-9.21a5.53 5.53 0 0 1-1.676 0l-6.213 9.21c-.132.196-.283.371-.449.525v2.339a3.998 3.998 0 0 1-4 3.99c-2.21 0-4-1.784-4-3.99V39.49a3.998 3.998 0 0 1 4-3.99c2.21 0 4 1.784 4 3.99v3.093z" stroke="#7fdbff" stroke-width="5" fill="none" fill-rule="evenodd"/></svg>