<svg xmlns="http://www.w3.org/2000/svg" width="63.702" height="63.704" viewBox="0 0 63.702447 63.704103"><g transform="translate(2.351 -991.01)"><circle cx="29.5" cy="1022.862" r="11.743" fill="#ff0" stroke="#fff" stroke-width="2.4"/><path d="M10.63 1000.37a29.358 29.358 0 0 1 37.74 0" fill="none" stroke="#ff0" stroke-width="5"/><path fill="#ff0" d="M26.779 995.609h5.441v54.506h-5.441z"/><path fill="#ff0" d="M2.247 1025.583v-5.441h54.506v5.441z"/><path d="M51.991 1003.991a29.358 29.358 0 0 1 0 37.742M7.01 1041.733a29.358 29.358 0 0 1 0-37.741M48.37 1045.354a29.358 29.358 0 0 1-37.74 0" fill="none" stroke="#ff0" stroke-width="5"/><path d="M9.963 1017.627a20.225 20.225 0 0 1 14.301-14.301" fill="none" stroke="#ff0" stroke-width="3.445"/><path fill="#ff0" d="M14.9 1010.912l2.65-2.65 26.55 26.55-2.65 2.65z"/><path fill="#ff0" d="M17.55 1037.464l-2.65-2.65 26.55-26.552 2.65 2.65z"/><path d="M34.735 1003.326a20.225 20.225 0 0 1 14.301 14.3M24.265 1042.398a20.225 20.225 0 0 1-14.301-14.3M49.037 1028.098a20.225 20.225 0 0 1-14.301 14.3" fill="none" stroke="#ff0" stroke-width="3.445"/></g></svg>